<?xml version="1.0" encoding="utf-8"?>
<!-- Generator: Adobe Illustrator 15.0.0, SVG Export Plug-In . SVG Version: 6.00 Build 0)  -->
<!DOCTYPE svg PUBLIC "-//W3C//DTD SVG 1.1//EN" "http://www.w3.org/Graphics/SVG/1.1/DTD/svg11.dtd">
<svg version="1.1" id="Layer_1" xmlns="http://www.w3.org/2000/svg" xmlns:xlink="http://www.w3.org/1999/xlink" x="0px" y="0px"
	 width="133.568px" height="241.809px" viewBox="0 0 133.568 241.809" enable-background="new 0 0 133.568 241.809"
	 xml:space="preserve">
<g id="Layer_1_1_">
</g>
<g id="Layer_3">
</g>
<g id="mask" display="none">
	<rect x="86.226" y="-24.33" display="inline" width="299.998" height="300"/>
	<g display="inline">
		<path fill="#FFFFFF" d="M207.805,76.89c-23.736,3.489-38.006,15.284-40.611,17.602c-13.634,46.753-13.891,133.298,60.244,169.806
			c65.981,32.494,87.634-87.596,94.079-144.096C271.464,77.95,232.055,73.325,207.805,76.89z"/>
	</g>
</g>
<g id="Layer_4">
	<path d="M38.322,204.004c0,0-30.27-42.302-32.98-77.375c-2.711-35.071,8.997-82.396,22.36-98.931
		c22.343-27.646,50.256-39.165,80.318,6.753c8.443,12.895,24.103,54.595,19.881,89.547c-6.368,52.694-23.4,79.211-23.4,79.211
		L38.322,204.004z"/>
	<path fill="none" stroke="#FFFFFF" stroke-width="1.0768" stroke-miterlimit="10" d="M33.11,65.441c0,0-15.535,55.203-0.106,87.13"
		/>
	<path fill="none" stroke="#FFFFFF" stroke-width="1.0768" stroke-miterlimit="10" d="M99.924,68.198c0,0,7.623,22.449,6.085,78.731
		"/>
	<path fill="none" stroke="#FFFFFF" stroke-width="1.0768" stroke-miterlimit="10" d="M11.864,154.205
		c0,0,15.638,11.031,27.496-7.886c11.857-18.916,5.765,32.675,5.765,32.675l-21.152,1.635"/>
	<path fill="none" stroke="#FFFFFF" stroke-width="1.0768" stroke-miterlimit="10" d="M124.464,145.502
		c-0.408,2.029-19.883,10.898-30.187-10.627c-10.301-21.524,2.821,36.504,2.821,36.504l18.979,5.654"/>
	<circle fill="#FFFFFF" cx="62.891" cy="65.839" r="2.692"/>
	<path fill="#FFFFFF" d="M65.019,93.38c0.099,1.276-0.858,2.39-2.133,2.488c-1.275,0.099-2.389-0.854-2.488-2.131
		c-0.099-1.275,0.855-2.39,2.131-2.489S64.921,92.104,65.019,93.38z"/>
	<circle fill="#FFFFFF" cx="62.592" cy="121.03" r="1.599"/>
</g>
</svg>
