<?xml version="1.0" encoding="utf-8"?>
<!-- Generator: Adobe Illustrator 15.0.0, SVG Export Plug-In . SVG Version: 6.00 Build 0)  -->
<!DOCTYPE svg PUBLIC "-//W3C//DTD SVG 1.1//EN" "http://www.w3.org/Graphics/SVG/1.1/DTD/svg11.dtd">
<svg version="1.1" id="Layer_1" xmlns="http://www.w3.org/2000/svg" xmlns:xlink="http://www.w3.org/1999/xlink" x="0px" y="0px"
	 width="60px" height="90px" viewBox="0 0 60 90" enable-background="new 0 0 60 90" xml:space="preserve">
<path d="M10.111,30.132C4.473,41.357,0.439,73.956,26.089,86.588c25.647,12.63,28.968-51.585,28.968-51.585
	s-4.369-23.289-20.638-23.042C18.148,12.206,15.752,18.907,10.111,30.132z"/>
<path fill="#FFFFFF" d="M54.486,42.089c-15.098-12.528-27.1-13.903-34.519-12.794c-5.565,0.833-9.438,3.104-11.393,4.514
	c-0.205,0.594-0.401,1.219-0.591,1.868c0.781-0.694,5.093-4.263,12.213-5.31c7.275-1.069,19.128,0.349,34.144,13.023
	C54.395,42.941,54.441,42.508,54.486,42.089z"/>
</svg>
